<?xml version="1.0" encoding="UTF-8" standalone="no"?><!DOCTYPE svg PUBLIC "-//W3C//DTD SVG 1.1//EN" "http://www.w3.org/Graphics/SVG/1.1/DTD/svg11.dtd"><svg width="100%" height="100%" viewBox="0 0 202 77" version="1.1" xmlns="http://www.w3.org/2000/svg" xmlns:xlink="http://www.w3.org/1999/xlink" xml:space="preserve" xmlns:serif="http://www.serif.com/" style="fill-rule:evenodd;clip-rule:evenodd;"><g id="logo"><path id="background" d="M68.615,46.471l-8.105,14.039l-14.039,8.105l-16.21,0l-14.039,-8.105l-8.105,-14.039l0,-16.21l8.105,-14.039l14.039,-8.105l16.21,0l14.039,8.105l8.105,14.039l0,16.21Z" style="fill:#0092fd;fill-rule:nonzero;stroke:#0091ff;stroke-width:3.94px;"/><path id="up-left" d="M45.086,53.889l-22.542,-39.043l-4.882,2.818l-7.576,13.123l25.186,6.748l9.814,16.354Z" style="fill:#011c3a;fill-rule:nonzero;"/><path id="up-right" d="M31.652,53.889l22.542,-39.043l4.882,2.818l7.576,13.123l-25.186,6.748l-9.814,16.354Z" style="fill:#011c3a;fill-rule:nonzero;"/><rect id="rect-left" x="10.086" y="30.787" width="21.594" height="7.642" style="fill:#011c3a;"/><rect id="rect-right" x="45.047" y="30.787" width="21.594" height="7.642" style="fill:#011c3a;"/><path id="down-right" d="M36.462,45.562l3.816,0l10.573,18.314l-4.908,2.834l-9.927,0l0.445,-21.147Z" style="fill:#011c3a;fill-rule:nonzero;"/><path id="down-left" d="M36.757,45.562l-0.303,0l-10.574,18.314l4.908,2.834l5.994,0l-0.026,-21.148Z" style="fill:#011c3a;fill-rule:nonzero;"/><path id="mid-circle" d="M44.346,36.826l0,3.205l-1.602,2.775l-2.775,1.602l-3.205,0l-2.775,-1.602l-1.602,-2.775l0,-3.205l1.602,-2.775l2.775,-1.602l3.205,0l2.775,1.602l1.602,2.775Z" style="fill:#0191fe;fill-rule:nonzero;stroke:#f5c800;stroke-opacity:0;stroke-width:2.31px;"/><path d="M38.366,23.414l8.826,2.868l5.455,7.508l0,9.28l-5.455,7.508l-8.826,2.868l-8.826,-2.868l-5.455,-7.508l0,-9.28l5.455,-7.508l8.826,-2.868Z" style="fill:#0091fe;stroke:#fff;stroke-opacity:0;stroke-width:1px;stroke-linecap:round;stroke-linejoin:round;stroke-miterlimit:1.5;"/><path d="M38.366,26.225l7.173,2.331l4.433,6.102l0,7.542l-4.433,6.102l-7.173,2.331l-7.173,-2.331l-4.433,-6.102l0,-7.542l4.433,-6.102l7.173,-2.331Z" style="fill:#011c3a;stroke:#011c3a;stroke-opacity:0;stroke-width:1px;stroke-linecap:round;stroke-linejoin:round;stroke-miterlimit:1.5;"/><path d="M38.366,33.455l2.924,0.95l1.807,2.487l0,3.074l-1.807,2.487l-2.924,0.95l-2.924,-0.95l-1.807,-2.487l0,-3.074l1.807,-2.487l2.924,-0.95Z" style="fill:#0092fd;stroke:#0092fd;stroke-opacity:0;stroke-width:1px;stroke-linecap:round;stroke-linejoin:round;stroke-miterlimit:1.5;"/></g><g transform="matrix(31.248849,0,0,31.248849,202.713306,48.28371)"></g><text x="75.85px" y="48.284px" style="font-family:'RobotCrush', 'Robot Crush';font-size:31.249px;fill:#fff;">R<tspan x="94.197px 112.543px 130.89px 149.236px 167.583px 185.929px " y="48.284px 48.284px 48.284px 48.284px 48.284px 48.284px ">eaCTor</tspan></text></svg>